<svg
  version="1.1"
  id="svg1"
  width="100%"
  height="auto"
  viewBox="-3 -3 382 248"
  fill="#ffffff"
  xmlns="http://www.w3.org/2000/svg"
  xmlns:svg="http://www.w3.org/2000/svg"
  ><g id="deeditor_bgCarrier" stroke-width="0">
    <rect id="dee_c_e" x="-3" y="-3" width="382" height="248" rx="0" fill="#ffffff" strokewidth="0"/>
  </g>
  <defs id="defs1" fill="#000000"/>
  <g id="g1" transform="matrix(0.90679062,0,0,0.90679062,-54.782145,-58.767169)">
    <g id="group-MC6">
      <path id="path2" d="M 0,0 H 258.005" style="fill:none;stroke:#bdbcbc;stroke-width:0.5;stroke-linecap:butt;stroke-linejoin:round;stroke-miterlimit:10;stroke-dasharray:none;stroke-opacity:1" transform="matrix(1.3333333,0,0,-1.3333333,103.54533,77.588039)"/>
      <path id="path3" d="M 0,0 H 258.005" style="fill:none;stroke:#bdbcbc;stroke-width:0.5;stroke-linecap:butt;stroke-linejoin:round;stroke-miterlimit:10;stroke-dasharray:none;stroke-opacity:1" transform="matrix(1.3333333,0,0,-1.3333333,103.54533,102.29865)"/>
      <path id="path4" d="M 0,0 H 258.005" style="fill:none;stroke:#bdbcbc;stroke-width:0.5;stroke-linecap:butt;stroke-linejoin:round;stroke-miterlimit:10;stroke-dasharray:none;stroke-opacity:1" transform="matrix(1.3333333,0,0,-1.3333333,103.54533,119.8133)"/>
      <path id="path5" d="M 0,0 H 258.005" style="fill:none;stroke:#bdbcbc;stroke-width:0.5;stroke-linecap:butt;stroke-linejoin:round;stroke-miterlimit:10;stroke-dasharray:none;stroke-opacity:1" transform="matrix(1.3333333,0,0,-1.3333333,103.54533,144.52399)"/>
      <path id="path6" d="M 0,0 H 258.005" style="fill:none;stroke:#bdbcbc;stroke-width:0.5;stroke-linecap:butt;stroke-linejoin:round;stroke-miterlimit:10;stroke-dasharray:none;stroke-opacity:1" transform="matrix(1.3333333,0,0,-1.3333333,103.54533,200.38267)"/>
      <path id="path7" d="M 0,0 H 258.005" style="fill:none;stroke:#bdbcbc;stroke-width:0.5;stroke-linecap:butt;stroke-linejoin:round;stroke-miterlimit:10;stroke-dasharray:none;stroke-opacity:1" transform="matrix(1.3333333,0,0,-1.3333333,103.54533,217.89732)"/>
      <path id="path8" d="M 0,0 H 258.005" style="fill:none;stroke:#bdbcbc;stroke-width:0.5;stroke-linecap:butt;stroke-linejoin:round;stroke-miterlimit:10;stroke-dasharray:none;stroke-opacity:1" transform="matrix(1.3333333,0,0,-1.3333333,103.54533,242.60802)"/>
      <path id="path9" d="M 0,0 H 258.005" style="fill:none;stroke:#918f90;stroke-width:0.5;stroke-linecap:butt;stroke-linejoin:round;stroke-miterlimit:10;stroke-dasharray:none;stroke-opacity:1" transform="matrix(1.3333333,0,0,-1.3333333,103.54533,88.663965)"/>
      <path id="path10" d="M 0,0 H 258.005" style="fill:none;stroke:#918f90;stroke-width:0.5;stroke-linecap:butt;stroke-linejoin:round;stroke-miterlimit:10;stroke-dasharray:none;stroke-opacity:1" transform="matrix(1.3333333,0,0,-1.3333333,103.54533,186.74933)"/>
      <path id="path11" d="M 0,0 V 155.435" style="fill:none;stroke:#231f20;stroke-width:0.5;stroke-linecap:butt;stroke-linejoin:round;stroke-miterlimit:10;stroke-dasharray:none;stroke-opacity:1" transform="matrix(1.3333333,0,0,-1.3333333,103.54533,284.83466)"/>
      <path id="path12" d="M 0,0 H 1.847" style="fill:none;stroke:#231f20;stroke-width:0.5;stroke-linecap:butt;stroke-linejoin:round;stroke-miterlimit:10;stroke-dasharray:none;stroke-opacity:1" transform="matrix(1.3333333,0,0,-1.3333333,101.08266,88.663965)"/>
      <path id="path13" d="M 0,0 H 1.847" style="fill:none;stroke:#231f20;stroke-width:0.5;stroke-linecap:butt;stroke-linejoin:round;stroke-miterlimit:10;stroke-dasharray:none;stroke-opacity:1" transform="matrix(1.3333333,0,0,-1.3333333,101.08266,186.74933)"/>
      <path id="path14" d="M 0,0 H 1.847 259.852" style="fill:none;stroke:#231f20;stroke-width:0.5;stroke-linecap:butt;stroke-linejoin:round;stroke-miterlimit:10;stroke-dasharray:none;stroke-opacity:1" transform="matrix(1.3333333,0,0,-1.3333333,101.08266,284.83466)"/>
      <path id="path15" d="M 0,0 V -1.917" style="fill:none;stroke:#231f20;stroke-width:0.5;stroke-linecap:butt;stroke-linejoin:round;stroke-miterlimit:10;stroke-dasharray:none;stroke-opacity:1" transform="matrix(1.3333333,0,0,-1.3333333,444.70801,284.83466)"/>
      <path id="path16" d="M 0,0 V -1.917" style="fill:none;stroke:#231f20;stroke-width:0.5;stroke-linecap:butt;stroke-linejoin:round;stroke-miterlimit:10;stroke-dasharray:none;stroke-opacity:1" transform="matrix(1.3333333,0,0,-1.3333333,387.88001,284.83466)"/>
      <path id="path17" d="M 0,0 V -1.917" style="fill:none;stroke:#231f20;stroke-width:0.5;stroke-linecap:butt;stroke-linejoin:round;stroke-miterlimit:10;stroke-dasharray:none;stroke-opacity:1" transform="matrix(1.3333333,0,0,-1.3333333,331.04934,284.83466)"/>
      <path id="path18" d="M 0,0 V -1.917" style="fill:none;stroke:#231f20;stroke-width:0.5;stroke-linecap:butt;stroke-linejoin:round;stroke-miterlimit:10;stroke-dasharray:none;stroke-opacity:1" transform="matrix(1.3333333,0,0,-1.3333333,274.12533,284.83466)"/>
      <path id="path19" d="M 0,0 V -1.917" style="fill:none;stroke:#231f20;stroke-width:0.5;stroke-linecap:butt;stroke-linejoin:round;stroke-miterlimit:10;stroke-dasharray:none;stroke-opacity:1" transform="matrix(1.3333333,0,0,-1.3333333,217.296,284.83466)"/>
      <path id="path20" d="M 0,0 V -1.917" style="fill:none;stroke:#231f20;stroke-width:0.5;stroke-linecap:butt;stroke-linejoin:round;stroke-miterlimit:10;stroke-dasharray:none;stroke-opacity:1" transform="matrix(1.3333333,0,0,-1.3333333,160.46667,284.83466)"/>
      <path id="path21" d="M 0,0 V -1.917" style="fill:none;stroke:#231f20;stroke-width:0.5;stroke-linecap:butt;stroke-linejoin:round;stroke-miterlimit:10;stroke-dasharray:none;stroke-opacity:1" transform="matrix(1.3333333,0,0,-1.3333333,103.544,284.83466)"/>
      <path id="path22" d="m 0,0 2.132,-2.558 2.13,1.351 2.131,8.094 h 2.131 l 2.131,6.888 2.132,7.597 2.131,5.752 2.132,1.35 2.13,3.834 2.131,4.118 2.131,4.758 2.131,-0.568 2.131,3.478 2.132,1.846 2.131,-2.838 2.131,3.691 2.202,3.053 2.131,4.687 2.132,-0.711 2.131,7.315 2.13,-3.693 2.131,4.687 2.131,0.284 2.132,3.408 2.131,0.852 2.131,-1.774 2.131,0.283 2.13,3.196 2.132,0.284 2.131,3.693 2.13,3.194 2.133,3.834 2.131,6.321 2.131,1.987 2.131,0.71 2.13,4.616 2.131,0.143 2.132,-1.137 2.131,-0.639 2.131,2.272 h 2.131 l 2.132,2.343 2.13,1.775 2.132,-0.142 2.131,1.563 2.13,0.425 2.132,0.568 2.131,1.776 2.131,-0.568 2.131,1.561 2.131,0.924 2.131,2.628 2.131,-1.208 2.132,3.551 2.131,1.206 2.131,1.137 2.131,0.638 2.132,-0.78 2.13,1.633 2.132,2.414 2.131,-0.567 2.13,2.129 2.131,0.994 2.13,0.426 2.132,1.421 2.131,1.348 2.132,1.634 2.131,0.568 2.129,1.065 2.133,0.639 2.129,-1.278 2.133,-0.852 2.13,-1.208 2.132,-0.497 2.131,0.285 2.131,1.633 2.202,-0.355 2.13,0.994 2.131,0.639 2.133,-0.639 2.131,0.426 2.13,-1.278 2.133,-0.852 2.13,0.781 2.13,-1.705 2.132,-1.916 2.131,-0.711 2.131,-1.632 2.131,0.354 2.132,-1.137 2.131,-1.916 2.13,-0.497 2.132,-3.905 2.131,-0.995 2.131,-1.774 2.131,-0.852 2.131,-1.066 2.132,-1.847 2.129,-0.355 c 5.202,-1.752 5.285,-4.518 10.657,-6.319 l 2.131,-1.065 2.13,-0.142 2.132,-2.201 2.131,-0.852 2.132,-3.976 2.13,0.567 2.133,-1.633 2.128,-2.485 2.133,-0.923 2.131,-0.852 h 2.131 l 2.131,-0.213 2.131,-0.781 2.132,-0.64 2.13,-2.342 2.131,-1.563" style="fill:none;stroke:#231f20;stroke-width:0.75;stroke-linecap:round;stroke-linejoin:round;stroke-miterlimit:10;stroke-dasharray:none;stroke-opacity:1" transform="matrix(1.3333333,0,0,-1.3333333,104.96533,260.97467)"/>
      <path id="path23" d="M 0,0 2.132,-1.207 4.262,0 6.393,-1.207 8.524,3.48 l 2.131,1.064 2.132,1.138 2.131,2.059 2.132,0.994 2.13,6.461 2.131,-0.853 2.131,1.706 2.131,-2.627 2.131,5.113 2.132,3.123 2.131,0.71 2.131,2.841 2.202,3.976 2.131,3.123 2.132,4.475 2.131,-1.633 h 2.13 l 2.131,3.763 2.131,-0.498 2.132,3.978 2.131,-0.994 2.131,-2.984 2.131,2.486 2.13,4.26 2.132,3.409 2.131,2.059 2.13,3.408 2.133,4.261 2.131,-0.355 2.131,8.308 2.131,-2.272 2.13,0.284 2.131,0.567 2.132,-1.491 2.131,-1.207 2.131,1.562 2.131,-2.485 2.132,-1.562 2.13,-1.349 2.132,2.911 2.131,-1.917 2.13,0.994 h 2.132 l 2.131,2.201 2.131,0.852 2.131,0.64 2.131,3.691 2.131,0.569 2.131,0.781 2.132,0.284 2.131,2.059 2.131,-1.846 2.131,-2.983 2.132,1.136 2.13,1.634 2.132,3.55 2.131,0.497 2.13,5.255 2.131,2.485 2.13,4.26 2.132,0.569 h 2.131 l 2.132,8.095 2.131,-2.416 2.129,-0.922 2.133,4.047 2.129,-0.568 2.133,9.019 2.13,-6.321 2.132,0.142 2.131,2.343 2.131,-0.283 2.202,0.425 2.13,3.409 2.131,0.497 2.133,3.195 2.131,0.995 2.13,3.834 2.133,-5.112 2.13,3.62 2.13,-2.769 2.132,-0.71 4.262,-3.265 2.131,0.993 2.132,-2.13 2.131,-3.195 2.13,3.834 2.132,-5.254 2.131,-1.207 2.131,-1.492 2.131,-0.568 2.131,1.491 4.261,-0.568 2.133,0.995 2.13,0.142 2.131,1.633 2.132,1.136 2.131,1.846 2.131,-1.775 2.13,0.283 2.132,0.711 2.131,2.343 2.132,1.136 h 2.13 l 2.133,-2.13 2.128,-0.568 2.133,-2.982 2.131,0.852 2.131,3.692 2.131,-1.704 2.131,2.201 2.132,-0.071 2.13,1.846 2.131,0.568" style="fill:none;stroke:#7b7979;stroke-width:0.75;stroke-linecap:round;stroke-linejoin:round;stroke-miterlimit:10;stroke-dasharray:none;stroke-opacity:1" transform="matrix(1.3333333,0,0,-1.3333333,104.96533,270.44399)"/>
      <path id="path24" d="m 1.7927464,-2.5898012 c 0.1054688,0 0.2109375,-0.011719 0.3164063,-0.011719 0.4804687,0 1.3125,0.09375 1.3125,1.03125 0,0.64453121 -0.5039063,1.08984371 -1.21875,1.08984371 -1.0546875,0 -1.1835938,-0.71484371 -1.20703129,-1.24218751 h -0.7265625 c 0.046875,0.6445313 0.22265625,1.30078126 0.84374999,1.62890626 0.2695313,0.140625 0.6210938,0.24609375 1.0429688,0.24609375 1.4296875,0 2.0273437,-0.890625 2.0273437,-1.80468751 0,-0.7617187 -0.3984375,-1.1367187 -0.9375,-1.3125 v -0.023437 c 0.3046875,-0.09375 0.7148438,-0.4335937 0.7148438,-1.1601562 0,-0.8554688 -0.6445313,-1.4765625 -1.734375,-1.4765625 -1.47656254,0 -1.81640629,1.0195312 -1.81640629,1.8398437 H 1.1013402 c 0.023437,-0.3984375 0.09375,-1.2070312 1.0898437,-1.2070312 0.84375,0 1.0429688,0.5507812 1.0429688,0.890625 0,0.703125 -0.5273438,0.9140625 -1.078125,0.9140625 -0.1171875,0 -0.2460938,-0.011719 -0.3632813,-0.011719 z m 6.0527344,-0.1523437 c 0,1.4179687 -0.3632813,2.26171871 -1.171875,2.26171871 -0.8085938,0 -1.1835938,-0.84375001 -1.1835938,-2.26171871 0,-1.40625 0.375,-2.25 1.1835938,-2.25 0.8085937,0 1.171875,0.84375 1.171875,2.25 z m 0.75,0 c 0,-1.1601563 -0.3046875,-2.8828125 -1.921875,-2.8828125 -1.6171875,0 -1.9335938,1.7226562 -1.9335938,2.8828125 0,1.171875 0.3164063,2.89453121 1.9335938,2.89453121 1.6171875,0 1.921875,-1.72265621 1.921875,-2.89453121 z M -1.6642848,-79.212848 h -0.5507813 c -0.2226562,0.914062 -0.5976562,1.007812 -1.5117187,1.066406 v 0.5625 h 1.3125 v 3.996094 h 0.75 z m 2.9941406,0.808594 H 3.708762 v -0.691407 H 0.80251204 l -0.421875,3.023438 0.609375,0.02344 c 0.25781246,-0.339843 0.62109376,-0.527343 1.03124996,-0.527343 0.703125,0 1.2539063,0.433593 1.2539063,1.242187 0,0.703125 -0.4570313,1.289063 -1.1835938,1.289063 -0.6328125,0 -1.12499996,-0.292969 -1.19531246,-0.949219 h -0.7265625 c 0.12890625,1.265625 1.07812496,1.558594 1.81640626,1.558594 1.7578125,0 2.0390625,-1.347657 2.0390625,-1.980469 0,-1.160156 -0.9375,-1.792969 -1.8515625,-1.792969 -0.5039063,0 -0.84375,0.164063 -1.0898438,0.351563 z m 6.515625,2.074218 c 0,1.417969 -0.3632813,2.261719 -1.171875,2.261719 -0.8085938,0 -1.1835938,-0.84375 -1.1835938,-2.261719 0,-1.40625 0.375,-2.25 1.1835938,-2.25 0.8085937,0 1.171875,0.84375 1.171875,2.25 z m 0.75,0 c 0,-1.160156 -0.3046875,-2.882812 -1.921875,-2.882812 -1.6171875,0 -1.9335938,1.722656 -1.9335938,2.882812 0,1.171875 0.3164063,2.894532 1.9335938,2.894532 1.6171875,0 1.921875,-1.722657 1.921875,-2.894532 z M -4.2424098,-151.998 h 3.1054687 c -1.0898437,1.2539 -2.109375,3.26953 -2.296875,4.8164 h 0.7734375 c 0.4101563,-2.50781 1.74609376,-4.30078 2.30859376,-4.88672 v -0.62109 H -4.2424098 Z m 5.5722656,0 H 3.708762 v -0.69141 H 0.80251204 l -0.421875,3.02344 0.609375,0.0234 c 0.25781246,-0.33984 0.62109376,-0.52734 1.03124996,-0.52734 0.703125,0 1.2539063,0.43359 1.2539063,1.24219 0,0.70312 -0.4570313,1.28906 -1.1835938,1.28906 -0.6328125,0 -1.12499996,-0.29297 -1.19531246,-0.94922 h -0.7265625 c 0.12890625,1.26563 1.07812496,1.5586 1.81640626,1.5586 1.7578125,0 2.0390625,-1.34766 2.0390625,-1.98047 0,-1.16016 -0.9375,-1.79297 -1.8515625,-1.79297 -0.5039063,0 -0.84375,0.16406 -1.0898438,0.35156 z m 6.515625,2.07421 c 0,1.41797 -0.3632813,2.26172 -1.171875,2.26172 -0.8085938,0 -1.1835938,-0.84375 -1.1835938,-2.26172 0,-1.40625 0.375,-2.25 1.1835938,-2.25 0.8085937,0 1.171875,0.84375 1.171875,2.25 z m 0.75,0 c 0,-1.16015 -0.3046875,-2.88281 -1.921875,-2.88281 -1.6171875,0 -1.9335938,1.72266 -1.9335938,2.88281 0,1.17188 0.3164063,2.89454 1.9335938,2.89454 1.6171875,0 1.921875,-1.72266 1.921875,-2.89454 z M 7.4323949,2.2939879 H 6.8816136 C 6.6589574,3.2080504 6.2839574,3.3018004 5.3698949,3.3603941 v 0.5625 h 1.3125 v 3.9960938 h 0.75 z m 2.9941401,0.8085937 h 2.378907 V 2.4111754 H 9.8991917 l -0.421875,3.0234375 0.6093753,0.023437 c 0.257812,-0.3398438 0.621093,-0.5273438 1.03125,-0.5273438 0.703125,0 1.253906,0.4335938 1.253906,1.2421875 0,0.703125 -0.457031,1.2890625 -1.183594,1.2890625 -0.632812,0 -1.125,-0.2929687 -1.1953123,-0.9492187 H 9.2663792 c 0.1289063,1.265625 1.0781248,1.5585937 1.8164058,1.5585937 1.757813,0 2.039063,-1.3476562 2.039063,-1.9804687 0,-1.1601563 -0.9375,-1.7929688 -1.851563,-1.7929688 -0.503906,0 -0.84375,0.1640625 -1.089843,0.3515625 z m 7.054688,0.6328125 c 0,-0.65625 -0.492188,-1.4414062 -1.734375,-1.4414062 -1.347656,0 -1.710938,0.9609375 -1.710938,1.546875 0,0.5273437 0.28125,0.9140625 0.761719,1.0898437 -0.585937,0.2460938 -0.949219,0.6796875 -0.949219,1.3710938 0,0.2695312 0,0.8789062 0.574219,1.3359375 0.445313,0.3515625 1.042969,0.4335937 1.359375,0.4335937 1.324219,0 1.898438,-0.8671875 1.898438,-1.78125 0,-0.421875 -0.164063,-1.0429687 -0.914063,-1.359375 0.246094,-0.1289062 0.714844,-0.3867187 0.714844,-1.1953125 z m -1.722656,1.546875 c 0.644531,0 1.171875,0.328125 1.171875,1.0898438 0,0.8789062 -0.621094,1.0664062 -1.125,1.0664062 -0.984375,0 -1.207032,-0.6679687 -1.207032,-1.125 0,-0.515625 0.375,-1.03125 1.160157,-1.03125 z m 0,-0.609375 c -0.515625,0 -0.996094,-0.328125 -0.996094,-0.8671875 0,-0.3632812 0.1875,-0.8789062 0.9375,-0.8789062 0.832031,0 1.054687,0.4921875 1.054687,0.84375 0,0.5039062 -0.398437,0.9023437 -0.996093,0.9023437 z m 5.633789,0.5039063 c 0,1.4179687 -0.363281,2.2617187 -1.171875,2.2617187 -0.808594,0 -1.183594,-0.84375 -1.183594,-2.2617187 0,-1.40625 0.375,-2.25 1.183594,-2.25 0.808594,0 1.171875,0.84375 1.171875,2.25 z m 0.75,0 c 0,-1.1601563 -0.304688,-2.8828125 -1.921875,-2.8828125 -1.617188,0 -1.933594,1.7226562 -1.933594,2.8828125 0,1.171875 0.316406,2.8945312 1.933594,2.8945312 1.617187,0 1.921875,-1.7226562 1.921875,-2.8945312 z M 50.091575,2.2939879 h -0.550782 c -0.222656,0.9140625 -0.597656,1.0078125 -1.511718,1.0664062 v 0.5625 h 1.3125 v 3.9960938 h 0.75 z m 5.607421,1.5 c -0.08203,-1.1484375 -0.996093,-1.5 -1.640625,-1.5 -1.6875,0 -2.085937,1.7695312 -2.085937,3.0117187 0,0.7265625 0.09375,1.4179688 0.433594,1.9453125 0.398437,0.6328125 1.019531,0.8203125 1.441406,0.8203125 0.796875,0 1.136719,-0.2109375 1.429687,-0.5390625 0.386719,-0.421875 0.539063,-0.8320312 0.539063,-1.4179687 0,-1.3359375 -1.078125,-1.78125 -1.757813,-1.78125 -0.773437,0 -1.171875,0.3867187 -1.347656,0.6914062 l -0.01172,-0.023437 c 0,-0.5859375 0.234375,-2.0742187 1.335938,-2.0742187 0.609375,0 0.878906,0.3632812 0.972656,0.8671875 z m -2.90625,2.390625 c 0,-0.65625 0.375,-1.21875 1.160157,-1.21875 0.867187,0 1.136718,0.6914062 1.136718,1.1835937 0,0.7617188 -0.433593,1.2890625 -1.113281,1.2890625 -0.820312,0 -1.183594,-0.6445312 -1.183594,-1.2539062 z M 59.60427,5.1768004 c 0,1.4179687 -0.363281,2.2617187 -1.171875,2.2617187 -0.808594,0 -1.183594,-0.84375 -1.183594,-2.2617187 0,-1.40625 0.375,-2.25 1.183594,-2.25 0.808594,0 1.171875,0.84375 1.171875,2.25 z m 0.75,0 c 0,-1.1601563 -0.304688,-2.8828125 -1.921875,-2.8828125 -1.617188,0 -1.933594,1.7226562 -1.933594,2.8828125 0,1.171875 0.316406,2.8945312 1.933594,2.8945312 1.617187,0 1.921875,-1.7226562 1.921875,-2.8945312 z m 3.697265,0 c 0,1.4179687 -0.363281,2.2617187 -1.171875,2.2617187 -0.808593,0 -1.183593,-0.84375 -1.183593,-2.2617187 0,-1.40625 0.375,-2.25 1.183593,-2.25 0.808594,0 1.171875,0.84375 1.171875,2.25 z m 0.75,0 c 0,-1.1601563 -0.304687,-2.8828125 -1.921875,-2.8828125 -1.617187,0 -1.933593,1.7226562 -1.933593,2.8828125 0,1.171875 0.316406,2.8945312 1.933593,2.8945312 1.617188,0 1.921875,-1.7226562 1.921875,-2.8945312 z M 92.753684,2.2939879 h -0.550781 c -0.222657,0.9140625 -0.597657,1.0078125 -1.511719,1.0664062 v 0.5625 h 1.3125 v 3.9960938 h 0.75 z m 5.607422,1.5 c -0.08203,-1.1484375 -0.996094,-1.5 -1.640625,-1.5 -1.6875,0 -2.085938,1.7695312 -2.085938,3.0117187 0,0.7265625 0.09375,1.4179688 0.433594,1.9453125 0.398438,0.6328125 1.019531,0.8203125 1.441406,0.8203125 0.796875,0 1.136719,-0.2109375 1.429688,-0.5390625 0.386719,-0.421875 0.539062,-0.8320312 0.539062,-1.4179687 0,-1.3359375 -1.078125,-1.78125 -1.757812,-1.78125 -0.773438,0 -1.171875,0.3867187 -1.347656,0.6914062 l -0.01172,-0.023437 c 0,-0.5859375 0.234375,-2.0742187 1.335937,-2.0742187 0.609375,0 0.878907,0.3632812 0.972657,0.8671875 z m -2.90625,2.390625 c 0,-0.65625 0.375,-1.21875 1.160156,-1.21875 0.867188,0 1.136719,0.6914062 1.136719,1.1835937 0,0.7617188 -0.433594,1.2890625 -1.113281,1.2890625 -0.820313,0 -1.183594,-0.6445312 -1.183594,-1.2539062 z m 4.464844,-1.875 c 0.02344,-0.3867188 0.07031,-1.3828125 1.13672,-1.3828125 0.82031,0 1.11328,0.5625 1.11328,1.0195312 0,0.7265625 -0.43359,0.9609375 -1.03125,1.3125 l -0.75,0.421875 c -0.75,0.4453125 -1.277344,1.0664063 -1.3125,2.2382813 h 3.84375 V 7.2510191 h -3.058594 c 0.03516,-0.2109375 0.199214,-0.65625 0.972654,-1.078125 l 0.58594,-0.3164062 c 0.84375,-0.4453125 1.5,-0.8789063 1.5,-1.8867188 0,-1.0429687 -0.78516,-1.6757812 -1.75781,-1.6757812 -0.60938,0 -1.945315,0.1875 -1.945315,2.015625 z m 6.79394,0.8671875 c 0,1.4179687 -0.36328,2.2617187 -1.17187,2.2617187 -0.80859,0 -1.18359,-0.84375 -1.18359,-2.2617187 0,-1.40625 0.375,-2.25 1.18359,-2.25 0.80859,0 1.17187,0.84375 1.17187,2.25 z m 0.75,0 c 0,-1.1601563 -0.30468,-2.8828125 -1.92187,-2.8828125 -1.61719,0 -1.93359,1.7226562 -1.93359,2.8828125 0,1.171875 0.3164,2.8945312 1.93359,2.8945312 1.61719,0 1.92187,-1.7226562 1.92187,-2.8945312 z m 27.94922,-2.8828125 h -0.55078 c -0.22265,0.9140625 -0.59765,1.0078125 -1.51172,1.0664062 v 0.5625 h 1.3125 v 3.9960938 h 0.75 z m 5.61036,1.5 c -0.082,-1.1484375 -0.9961,-1.5 -1.64063,-1.5 -1.6875,0 -2.08594,1.7695312 -2.08594,3.0117187 0,0.7265625 0.0937,1.4179688 0.4336,1.9453125 0.39843,0.6328125 1.01953,0.8203125 1.4414,0.8203125 0.79688,0 1.13672,-0.2109375 1.42969,-0.5390625 0.38672,-0.421875 0.53906,-0.8320312 0.53906,-1.4179687 0,-1.3359375 -1.07812,-1.78125 -1.75781,-1.78125 -0.77344,0 -1.17187,0.3867187 -1.34766,0.6914062 l -0.0117,-0.023437 c 0,-0.5859375 0.23437,-2.0742187 1.33593,-2.0742187 0.60938,0 0.87891,0.3632812 0.97266,0.8671875 z m -2.90625,2.390625 c 0,-0.65625 0.375,-1.21875 1.16015,-1.21875 0.86719,0 1.13672,0.6914062 1.13672,1.1835937 0,0.7617188 -0.43359,1.2890625 -1.11328,1.2890625 -0.82031,0 -1.18359,-0.6445312 -1.18359,-1.2539062 z m 7.59375,0.3632812 V 5.9385191 H 144.8904 V 2.2939879 h -0.58593 l -2.57813,3.5625 v 0.6914062 h 2.46094 v 1.3710938 h 0.70312 V 6.5478941 Z m -1.54688,-3.1640625 h 0.0234 v 2.5546875 h -1.81641 z m 5.20898,1.7929688 c 0,1.4179687 -0.36328,2.2617187 -1.17187,2.2617187 -0.80859,0 -1.18359,-0.84375 -1.18359,-2.2617187 0,-1.40625 0.375,-2.25 1.18359,-2.25 0.80859,0 1.17187,0.84375 1.17187,2.25 z m 0.75,0 c 0,-1.1601563 -0.30468,-2.8828125 -1.92187,-2.8828125 -1.61719,0 -1.93359,1.7226562 -1.93359,2.8828125 0,1.171875 0.3164,2.8945312 1.93359,2.8945312 1.61719,0 1.92187,-1.7226562 1.92187,-2.8945312 z m 27.95215,-2.8828125 h -0.55078 c -0.22265,0.9140625 -0.59765,1.0078125 -1.51172,1.0664062 v 0.5625 h 1.3125 v 3.9960938 h 0.75 z m 5.60742,1.5 c -0.082,-1.1484375 -0.99609,-1.5 -1.64062,-1.5 -1.6875,0 -2.08594,1.7695312 -2.08594,3.0117187 0,0.7265625 0.0937,1.4179688 0.4336,1.9453125 0.39843,0.6328125 1.01953,0.8203125 1.4414,0.8203125 0.79688,0 1.13672,-0.2109375 1.42969,-0.5390625 0.38672,-0.421875 0.53906,-0.8320312 0.53906,-1.4179687 0,-1.3359375 -1.07812,-1.78125 -1.75781,-1.78125 -0.77344,0 -1.17188,0.3867187 -1.34766,0.6914062 l -0.0117,-0.023437 c 0,-0.5859375 0.23438,-2.0742187 1.33594,-2.0742187 0.60938,0 0.87891,0.3632812 0.97266,0.8671875 z m -2.90625,2.390625 c 0,-0.65625 0.375,-1.21875 1.16016,-1.21875 0.86719,0 1.13672,0.6914062 1.13672,1.1835937 0,0.7617188 -0.43359,1.2890625 -1.11328,1.2890625 -0.82031,0 -1.1836,-0.6445312 -1.1836,-1.2539062 z m 7.44434,-2.390625 c -0.082,-1.1484375 -0.99609,-1.5 -1.64062,-1.5 -1.6875,0 -2.08594,1.7695312 -2.08594,3.0117187 0,0.7265625 0.0937,1.4179688 0.43359,1.9453125 0.39844,0.6328125 1.01953,0.8203125 1.44141,0.8203125 0.79687,0 1.13672,-0.2109375 1.42969,-0.5390625 0.38671,-0.421875 0.53906,-0.8320312 0.53906,-1.4179687 0,-1.3359375 -1.07813,-1.78125 -1.75781,-1.78125 -0.77344,0 -1.17188,0.3867187 -1.34766,0.6914062 l -0.0117,-0.023437 c 0,-0.5859375 0.23438,-2.0742187 1.33594,-2.0742187 0.60937,0 0.8789,0.3632812 0.97265,0.8671875 z m -2.90625,2.390625 c 0,-0.65625 0.375,-1.21875 1.16016,-1.21875 0.86718,0 1.13672,0.6914062 1.13672,1.1835937 0,0.7617188 -0.4336,1.2890625 -1.11329,1.2890625 -0.82031,0 -1.18359,-0.6445312 -1.18359,-1.2539062 z m 6.7207,-1.0078125 c 0,1.4179687 -0.36328,2.2617187 -1.17187,2.2617187 -0.80859,0 -1.18359,-0.84375 -1.18359,-2.2617187 0,-1.40625 0.375,-2.25 1.18359,-2.25 0.80859,0 1.17187,0.84375 1.17187,2.25 z m 0.75,0 c 0,-1.1601563 -0.30468,-2.8828125 -1.92187,-2.8828125 -1.61719,0 -1.93359,1.7226562 -1.93359,2.8828125 0,1.171875 0.3164,2.8945312 1.93359,2.8945312 1.61719,0 1.92187,-1.7226562 1.92187,-2.8945312 z m 27.95215,-2.8828125 h -0.55078 c -0.22266,0.9140625 -0.59766,1.0078125 -1.51172,1.0664062 v 0.5625 h 1.3125 v 3.9960938 h 0.75 z m 5.60742,1.5 c -0.082,-1.1484375 -0.99609,-1.5 -1.64062,-1.5 -1.6875,0 -2.08594,1.7695312 -2.08594,3.0117187 0,0.7265625 0.0937,1.4179688 0.4336,1.9453125 0.39843,0.6328125 1.01953,0.8203125 1.4414,0.8203125 0.79688,0 1.13672,-0.2109375 1.42969,-0.5390625 0.38672,-0.421875 0.53906,-0.8320312 0.53906,-1.4179687 0,-1.3359375 -1.07812,-1.78125 -1.75781,-1.78125 -0.77344,0 -1.17188,0.3867187 -1.34766,0.6914062 l -0.0117,-0.023437 c 0,-0.5859375 0.23438,-2.0742187 1.33594,-2.0742187 0.60938,0 0.87891,0.3632812 0.97266,0.8671875 z m -2.90625,2.390625 c 0,-0.65625 0.375,-1.21875 1.16016,-1.21875 0.86719,0 1.13672,0.6914062 1.13672,1.1835937 0,0.7617188 -0.43359,1.2890625 -1.11328,1.2890625 -0.82031,0 -1.1836,-0.6445312 -1.1836,-1.2539062 z m 7.34766,-2.4492188 c 0,-0.65625 -0.49219,-1.4414062 -1.73437,-1.4414062 -1.34766,0 -1.71094,0.9609375 -1.71094,1.546875 0,0.5273437 0.28125,0.9140625 0.76172,1.0898437 -0.58594,0.2460938 -0.94922,0.6796875 -0.94922,1.3710938 0,0.2695312 0,0.8789062 0.57422,1.3359375 0.44531,0.3515625 1.04297,0.4335937 1.35937,0.4335937 1.32422,0 1.89844,-0.8671875 1.89844,-1.78125 0,-0.421875 -0.16406,-1.0429687 -0.91406,-1.359375 0.24609,-0.1289062 0.71484,-0.3867187 0.71484,-1.1953125 z m -1.72266,1.546875 c 0.64454,0 1.17188,0.328125 1.17188,1.0898438 0,0.8789062 -0.62109,1.0664062 -1.125,1.0664062 -0.98438,0 -1.20703,-0.6679687 -1.20703,-1.125 0,-0.515625 0.375,-1.03125 1.16015,-1.03125 z m 0,-0.609375 c -0.51562,0 -0.99609,-0.328125 -0.99609,-0.8671875 0,-0.3632812 0.1875,-0.8789062 0.9375,-0.8789062 0.83203,0 1.05469,0.4921875 1.05469,0.84375 0,0.5039062 -0.39844,0.9023437 -0.9961,0.9023437 z m 5.63086,0.5039063 c 0,1.4179687 -0.36328,2.2617187 -1.17187,2.2617187 -0.8086,0 -1.1836,-0.84375 -1.1836,-2.2617187 0,-1.40625 0.375,-2.25 1.1836,-2.25 0.80859,0 1.17187,0.84375 1.17187,2.25 z m 0.75,0 c 0,-1.1601563 -0.30468,-2.8828125 -1.92187,-2.8828125 -1.61719,0 -1.9336,1.7226562 -1.9336,2.8828125 0,1.171875 0.31641,2.8945312 1.9336,2.8945312 1.61719,0 1.92187,-1.7226562 1.92187,-2.8945312 z m 27.95215,-2.8828125 h -0.55078 c -0.22266,0.9140625 -0.59766,1.0078125 -1.51172,1.0664062 v 0.5625 h 1.3125 v 3.9960938 h 0.75 z m 1.86914,0.8085937 h 3.10547 c -1.08984,1.2539063 -2.10937,3.2695313 -2.29687,4.8164063 h 0.77343 c 0.41016,-2.5078125 1.7461,-4.3007813 2.3086,-4.8867188 V 2.4111754 h -3.89063 z m 7.64063,2.0742188 c 0,1.4179687 -0.36328,2.2617187 -1.17188,2.2617187 -0.80859,0 -1.18359,-0.84375 -1.18359,-2.2617187 0,-1.40625 0.375,-2.25 1.18359,-2.25 0.8086,0 1.17188,0.84375 1.17188,2.25 z m 0.75,0 c 0,-1.1601563 -0.30469,-2.8828125 -1.92188,-2.8828125 -1.61718,0 -1.93359,1.7226562 -1.93359,2.8828125 0,1.171875 0.31641,2.8945312 1.93359,2.8945312 1.61719,0 1.92188,-1.7226562 1.92188,-2.8945312 z m 3.70019,0 c 0,1.4179687 -0.36328,2.2617187 -1.17187,2.2617187 -0.8086,0 -1.1836,-0.84375 -1.1836,-2.2617187 0,-1.40625 0.375,-2.25 1.1836,-2.25 0.80859,0 1.17187,0.84375 1.17187,2.25 z m 0.75,0 c 0,-1.1601563 -0.30468,-2.8828125 -1.92187,-2.8828125 -1.61719,0 -1.9336,1.7226562 -1.9336,2.8828125 0,1.171875 0.31641,2.8945312 1.9336,2.8945312 1.61719,0 1.92187,-1.7226562 1.92187,-2.8945312 z m 0,0" style="fill:#231f20;fill-opacity:1;fill-rule:nonzero;stroke:none" aria-label="30&#xA;150&#xA;750&#xA;1580160016201640166016801700" transform="matrix(1.3333333,0,0,1.3333333,85.418265,288.29291)"/>
      <path id="path25" d="M 0,0 H 11.366" style="fill:none;stroke:#231f20;stroke-width:0.75;stroke-linecap:round;stroke-linejoin:round;stroke-miterlimit:10;stroke-dasharray:none;stroke-opacity:1" transform="matrix(1.3333333,0,0,-1.3333333,207.22133,315.81468)"/>
      <path id="path26" d="M 1.4639278,-5.0845217 H 3.045959 c 0.6328125,0 1.1367188,0.234375 1.1367188,0.9609375 0,0.7851563 -0.4804688,1.03125 -1.171875,1.03125 h -1.546875 z m 0,2.6601563 h 1.8046875 c 1.2539062,0 1.7109375,-0.9023438 1.7109375,-1.6992188 0,-0.9375 -0.6445313,-1.6171875 -1.7109375,-1.6171875 H 0.69049029 V 0.00141581 H 1.4639278 Z m 5.0273437,-0.4921875 c 0.046875,-0.3164063 0.1523438,-0.8085938 0.9609375,-0.8085938 0.65625,0 0.984375,0.2460938 0.984375,0.6796875 0,0.421875 -0.1992187,0.4804688 -0.375,0.5039063 l -1.1601562,0.140625 c -1.171875,0.140625 -1.265625,0.9609375 -1.265625,1.3125 0,0.72656246 0.5390625,1.20703121 1.3125,1.20703121 0.8085937,0 1.2304687,-0.38671875 1.5117187,-0.6796875 0.023437,0.328125 0.1171875,0.64453125 0.7382813,0.64453125 0.1640625,0 0.2695312,-0.046875 0.3867187,-0.08203125 v -0.515625 c -0.082031,0.0234375 -0.1640625,0.0351563 -0.234375,0.0351563 -0.140625,0 -0.234375,-0.0703125 -0.234375,-0.24609375 V -3.1392092 c 0,-1.0664062 -1.2070312,-1.1601562 -1.546875,-1.1601562 -1.03125,0 -1.6992187,0.3867187 -1.734375,1.3828125 z m 1.921875,1.4648437 c 0,0.56250001 -0.6328125,0.98437501 -1.2890625,0.98437501 -0.5273437,0 -0.7617187,-0.26953125 -0.7617187,-0.72656251 0,-0.5273437 0.5507812,-0.6328125 0.890625,-0.6796875 0.8789062,-0.1054687 1.0546875,-0.1757812 1.1601562,-0.2578125 z m 2.6250005,-2.7304687 h -0.703125 v 4.18359371 h 0.703125 z m 0,-0.7617188 v -0.796875 h -0.703125 v 0.796875 z m 4.464843,2.0976563 c 0,-1.1953125 -0.808593,-1.453125 -1.464843,-1.453125 -0.714844,0 -1.113282,0.4804687 -1.265625,0.703125 h -0.01172 v -0.5859375 h -0.667969 v 4.18359371 h 0.703125 V -2.2837404 c 0,-1.1367188 0.714844,-1.3828125 1.113281,-1.3828125 0.679688,0 0.890625,0.3632812 0.890625,1.0898437 v 2.57812501 h 0.703125 z m 2.589844,-0.75 v -0.5859375 h -0.679687 v -1.171875 h -0.703125 v 1.171875 h -0.5625 v 0.5859375 h 0.5625 v 2.75390621 c 0,0.50390625 0.152343,0.90234375 0.84375,0.90234375 0.08203,0 0.28125,-0.03515625 0.539062,-0.05859375 v -0.55078125 h -0.257812 c -0.140625,0 -0.421875,0 -0.421875,-0.328125 V -3.5962404 Z m 3.541992,2.2851562 c -0.03516,0.31640626 -0.421875,0.82031251 -1.089844,0.82031251 -0.808593,0 -1.207031,-0.50390625 -1.207031,-1.37109371 h 3.046875 c 0,-1.4765625 -0.585937,-2.4375 -1.792969,-2.4375 -1.382812,0 -2.015625,1.03125 -2.015625,2.3203125 0,1.20703121 0.703125,2.09765621 1.875,2.09765621 0.679688,0 0.949219,-0.15234375 1.136719,-0.28125 0.527344,-0.3515625 0.726563,-0.94921871 0.75,-1.14843751 z m -2.296875,-1.1132812 c 0,-0.6445313 0.503906,-1.2421875 1.160156,-1.2421875 0.855469,0 1.125,0.5976562 1.160157,1.2421875 z m 4.699219,-0.011719 c 0,-0.609375 0.410156,-1.1132812 1.066406,-1.1132812 h 0.269531 v -0.7265625 c -0.05859,-0.023437 -0.09375,-0.023437 -0.1875,-0.023437 -0.527343,0 -0.890625,0.328125 -1.171875,0.8085937 h -0.02344 v -0.6914062 h -0.65625 v 4.18359371 h 0.703125 z m 4.918945,-0.5507812 c 0,-0.2109375 -0.105468,-1.3125 -1.59375,-1.3125 -0.832031,0 -1.59375,0.4101562 -1.59375,1.3359375 0,0.5742187 0.386719,0.8671875 0.972657,1.0078125 l 0.820312,0.1992187 c 0.597656,0.1523438 0.832031,0.2695313 0.832031,0.609375 0,0.45703126 -0.457031,0.65625001 -0.960937,0.65625001 -0.996094,0 -1.089844,-0.52734371 -1.113281,-0.85546871 h -0.679688 c 0.02344,0.50390621 0.140625,1.46484371 1.804688,1.46484371 0.9375,0 1.652343,-0.515625 1.652343,-1.38281251 0,-0.5625 -0.304687,-0.890625 -1.171875,-1.1015625 l -0.714843,-0.1757812 c -0.539063,-0.140625 -0.75,-0.2226563 -0.75,-0.5625 0,-0.515625 0.609375,-0.5976563 0.832031,-0.5976563 0.878906,0 0.984375,0.4453125 0.984375,0.7148438 z m 0,0" style="fill:#231f20;fill-opacity:1;fill-rule:nonzero;stroke:none" aria-label="Painters" transform="matrix(1.3333333,0,0,1.3333333,226.052,319.27546)"/>
      <path id="path27" d="M 0,0 H 11.365" style="fill:none;stroke:#7b7979;stroke-width:0.75;stroke-linecap:round;stroke-linejoin:round;stroke-miterlimit:10;stroke-dasharray:none;stroke-opacity:1" transform="matrix(1.3333333,0,0,-1.3333333,274.28666,315.81468)"/>
      <path id="path28" d="m 1.4653616,-5.0845217 h 1.5820313 c 0.6328125,0 1.1367187,0.234375 1.1367187,0.9609375 0,0.7851563 -0.4804687,1.03125 -1.171875,1.03125 h -1.546875 z m 0,2.6601563 h 1.8046875 c 1.2539063,0 1.7109375,-0.9023438 1.7109375,-1.6992188 0,-0.9375 -0.6445312,-1.6171875 -1.7109375,-1.6171875 H 0.6919241 V 0.00141581 H 1.4653616 Z M 9.2583304,0.00141581 V -4.1821779 h -0.703125 v 2.296875 c 0,0.609375 -0.2695313,1.39453121 -1.1484375,1.39453121 -0.4570313,0 -0.8085938,-0.22265625 -0.8085938,-0.91406251 V -4.1821779 H 5.8833304 v 3.0117187 c 0,0.99609376 0.75,1.28906251 1.3710937,1.28906251 0.6679688,0 1.03125,-0.2578125 1.3242188,-0.73828125 l 0.011719,0.0117188 v 0.609375 z m 1.6699216,0 v -0.515625 h 0.02344 c 0.140625,0.22265625 0.433593,0.6328125 1.148437,0.6328125 1.429688,0 1.839844,-1.33593751 1.839844,-2.33203121 0,-1.1835938 -0.632813,-2.0859375 -1.746094,-2.0859375 -0.480469,0 -0.902344,0.1992187 -1.207031,0.6445312 h -0.01172 v -2.0859375 h -0.703125 v 5.74218751 z m 2.285156,-2.10937501 c 0,0.9257813 -0.363281,1.61718751 -1.125,1.61718751 -0.457031,0 -1.148437,-0.29296875 -1.148437,-1.40625001 0,-0.6796875 0.117187,-1.7695312 1.125,-1.7695312 1.089844,0 1.148437,1.03125 1.148437,1.5585937 z m 2.291016,-3.6328125 h -0.703125 v 5.74218751 h 0.703125 z m 1.78418,1.5585938 h -0.703125 v 4.18359371 h 0.703125 z m 0,-0.7617188 v -0.796875 h -0.703125 v 0.796875 z m 4.116211,1.9570313 c 0,-0.2109375 -0.105469,-1.3125 -1.59375,-1.3125 -0.832032,0 -1.59375,0.4101562 -1.59375,1.3359375 0,0.5742187 0.386718,0.8671875 0.972656,1.0078125 l 0.820312,0.1992187 c 0.597657,0.1523438 0.832032,0.2695313 0.832032,0.609375 0,0.45703126 -0.457032,0.65625001 -0.960938,0.65625001 -0.996094,0 -1.089844,-0.52734371 -1.113281,-0.85546871 h -0.679688 c 0.02344,0.50390621 0.140625,1.46484371 1.804688,1.46484371 0.9375,0 1.652344,-0.515625 1.652344,-1.38281251 0,-0.5625 -0.304688,-0.890625 -1.171875,-1.1015625 l -0.714844,-0.1757812 c -0.539063,-0.140625 -0.75,-0.2226563 -0.75,-0.5625 0,-0.515625 0.609375,-0.5976563 0.832031,-0.5976563 0.878906,0 0.984375,0.4453125 0.984375,0.7148438 z m 4.362304,0.140625 c 0,-1.1953125 -0.808593,-1.453125 -1.464843,-1.453125 -0.667969,0 -1.019532,0.4101562 -1.21875,0.6796875 h -0.02344 v -2.1210938 h -0.703125 v 5.74218751 h 0.703125 V -2.2837404 c 0,-1.0546875 0.597656,-1.3828125 1.171875,-1.3828125 0.679688,0 0.832031,0.3632812 0.832031,0.9257812 v 2.74218751 h 0.703125 z m 3.908204,1.5351562 c -0.03516,0.31640626 -0.421875,0.82031251 -1.089844,0.82031251 -0.808594,0 -1.207031,-0.50390625 -1.207031,-1.37109371 h 3.046875 c 0,-1.4765625 -0.585938,-2.4375 -1.792969,-2.4375 -1.382813,0 -2.015625,1.03125 -2.015625,2.3203125 0,1.20703121 0.703125,2.09765621 1.875,2.09765621 0.679687,0 0.949219,-0.15234375 1.136719,-0.28125 0.527343,-0.3515625 0.726562,-0.94921871 0.75,-1.14843751 z m -2.296875,-1.1132812 c 0,-0.6445313 0.503906,-1.2421875 1.160156,-1.2421875 0.855469,0 1.125,0.5976562 1.160156,1.2421875 z m 4.754882,-0.011719 c 0,-0.609375 0.410157,-1.1132812 1.066407,-1.1132812 h 0.269531 v -0.7265625 c -0.05859,-0.023437 -0.09375,-0.023437 -0.1875,-0.023437 -0.527344,0 -0.890625,0.328125 -1.171875,0.8085937 h -0.02344 v -0.6914062 h -0.65625 v 4.18359371 h 0.703125 z m 4.924805,-0.5507812 c 0,-0.2109375 -0.105469,-1.3125 -1.59375,-1.3125 -0.832031,0 -1.59375,0.4101562 -1.59375,1.3359375 0,0.5742187 0.386719,0.8671875 0.972656,1.0078125 l 0.820313,0.1992187 c 0.597656,0.1523438 0.832031,0.2695313 0.832031,0.609375 0,0.45703126 -0.457031,0.65625001 -0.960937,0.65625001 -0.996094,0 -1.089844,-0.52734371 -1.113282,-0.85546871 h -0.679687 c 0.02344,0.50390621 0.140625,1.46484371 1.804687,1.46484371 0.9375,0 1.652344,-0.515625 1.652344,-1.38281251 0,-0.5625 -0.304687,-0.890625 -1.171875,-1.1015625 l -0.714844,-0.1757812 c -0.539062,-0.140625 -0.75,-0.2226563 -0.75,-0.5625 0,-0.515625 0.609375,-0.5976563 0.832032,-0.5976563 0.878906,0 0.984375,0.4453125 0.984375,0.7148438 z m 0,0" style="fill:#231f20;fill-opacity:1;fill-rule:nonzero;stroke:none" aria-label="Publishers" transform="matrix(1.3333333,0,0,1.3333333,293.26493,319.27546)"/>
    </g>
  </g>
</svg>
